# xmcd CD database file
#
# Track frame offsets:
#	150
#	11530
#	39577
#	51860
#	62168
#	74340
#	90985
#	103151
#	116033
#	129526
#	146463
#	159506
#
# Disc length: 2376 seconds
#
# Revision: 2
# Processed by: cddbd v1.5.1PL2 Copyright (c) Steve Scherf et al.
# Submitted via: CDex 1.50
#
DISCID=a309460c
DTITLE=Variados - Country Collection - Volume 6
DYEAR=1997
DGENRE=Country
TTITLE0=Caryl Mark Parker - It's Good To Be Me
TTITLE1=Bellamy Brothers - Rip Off The Knob
TTITLE2=Don Cox - Honey, Don't Pay The Ranson
TTITLE3=Thomas Bubitt - Against The Grain
TTITLE4=July Feel - Heaven Is A Place On Earth
TTITLE5=Gary Barnes - All For A Reason
TTITLE6=Sweethearts Of Rodeo - When Love Comes Around The Bend
TTITLE7=Anthony Steuber - Everybody's Talking
TTITLE8=Mark One - Thinking Problems
TTITLE9=Tim O'Brien - Forever Young
TTITLE10=James Santori - Burn Me Down
TTITLE11=L.K. Ranger - Karma Cameleon
EXTD=YEAR: 1997
EXTT0=
EXTT1=
EXTT2=
EXTT3=
EXTT4=
EXTT5=
EXTT6=
EXTT7=
EXTT8=
EXTT9=
EXTT10=
EXTT11=
PLAYORDER=
